# xmcd
#
# Track frame offsets:
#	150
#	18930
#	32087
#	53700
#	77098
#	94897
#	115617
#	128629
#	144032
#	159166
#	176359
#	192322
#	208810
#	224025
#	242055
#	256760
#	268569
#	281331
#	322183
#
# Disc length: 4518 seconds
#
# Revision: 0
# Processed by: cddbd v1.5.1PL0 Copyright (c) Steve Scherf et al.
# Submitted via: dBpowerAMP V4.0
#
DISCID=0411a413
DTITLE=Mungo Jerry - With Full Glasses
DYEAR=1900
DGENRE=Blues
TTITLE0=baby jump
TTITLE1=baby let's play house
TTITLE2=mighty man
TTITLE3=milkcow blues
TTITLE4=see mee
TTITLE5=o'reilly
TTITLE6=sad eyed joe
TTITLE7=that old dust storm
TTITLE8=the man behind piano
TTITLE9=little louis
TTITLE10=the sun is shining
TTITLE11=daddie's brew
TTITLE12=folow me down
TTITLE13=have a wiff on me
TTITLE14=you don't have to be in army to fight in the war
TTITLE15=little miss hishake
TTITLE16=alright, alright, alright
TTITLE17=i just wanna make love to you
TTITLE18=san francisci bay blues
EXTD=
EXTT0=
EXTT1=
EXTT2=
EXTT3=
EXTT4=
EXTT5=
EXTT6=
EXTT7=
EXTT8=
EXTT9=
EXTT10=
EXTT11=
EXTT12=
EXTT13=
EXTT14=
EXTT15=
EXTT16=
EXTT17=
EXTT18=
PLAYORDER=
